PathFileType	4	(X/Y/Z)	D:\TRACE\spot_10-12-23\spot_body_motion_3_5-v60.trc
DataRate	CameraRate	NumFrames	NumMarkers	Units	OrigDataRate	OrigDataStartFrame	OrigNumFrames
100.00	100.00	      21	9	mm	100.00	876	      7000
Frame#	Time	front left toe			Front right toe			aft left toe			aft right toe			Arm			FL body			FR body			AL Body			AR Body			
		X1	Y1	Z1	X2	Y2	Z2	X3	Y3	Z3	X4	Y4	Z4	X5	Y5	Z5	X6	Y6	Z6	X7	Y7	Z7	X8	Y8	Z8	X9	Y9	Z9	

876	8.750	-335.78000	28.95029	96.45386	248.64850	24.62748	3.70303	-201.86609	48.12479	590.59338	324.94531	44.08594	536.94867	-54.36081	806.22852	-131.71710	-132.99687	543.77521	-90.11760	18.14454	549.26917	-115.18801	5.46502	584.78113	781.39160	156.05342	584.77118	760.57214	
877	8.760	-335.69510	28.94716	96.42203	248.67688	24.58697	3.65887	-201.84026	48.11631	590.58081	324.94516	44.00885	536.93024	-54.31499	806.26654	-131.87056	-133.03499	543.79834	-90.26192	18.20440	549.33234	-114.99007	5.61115	584.87653	781.31366	156.24663	585.10028	760.94977	
878	8.770	-335.62958	28.94453	96.44361	248.71240	24.55894	3.65429	-201.77312	48.12852	590.58026	325.02524	44.04842	536.92242	-54.25154	806.21509	-132.10535	-133.04533	543.83862	-90.42437	18.21783	549.30865	-115.16647	5.95397	585.03168	781.24835	156.12595	585.17114	760.66479	
879	8.780	-335.58212	28.91137	96.45383	248.73927	24.57053	3.62935	-201.73848	48.11104	590.55328	325.05478	43.99825	536.89081	-54.15435	806.15576	-132.32144	-133.04466	543.82062	-90.55581	18.28026	549.23608	-115.27912	6.21394	585.23999	781.54791	156.00500	585.19733	760.42780	
880	8.790	-335.54208	28.92750	96.41866	248.74658	24.52308	3.60366	-201.71968	48.12264	590.53015	325.11462	44.04222	536.93915	-54.05159	806.02118	-132.52066	-133.04555	543.87549	-90.77044	18.30036	549.18231	-115.38741	6.36559	585.30682	781.47717	156.07481	585.27515	760.22693	
881	8.800	-335.46460	28.87372	96.42890	248.76332	24.55294	3.60737	-201.69807	48.13496	590.49078	325.17957	44.09033	536.92230	-54.00848	805.99719	-132.74176	-133.00206	543.87268	-90.97282	18.30910	549.19110	-115.54588	6.28218	585.21582	781.35541	156.05440	585.25372	760.01678	
882	8.810	-335.39081	28.89158	96.43217	248.80502	24.56684	3.61270	-201.62428	48.12339	590.48126	325.12405	44.02690	536.88934	-53.91157	806.00183	-132.89536	-132.96806	543.84082	-91.12540	18.32657	549.16498	-115.73427	6.33788	585.19653	781.23444	157.07948	585.70471	760.72406	
883	8.820	-335.31131	28.86892	96.41633	248.91969	24.54092	3.60360	-201.54965	48.06048	590.51630	325.17178	44.06490	536.89447	-53.87594	805.98285	-133.02208	-132.90254	543.80566	-91.22343	18.31583	549.19434	-115.91043	6.37826	585.23126	781.14368	157.11687	585.74622	760.49060	
884	8.830	-335.28378	28.87121	96.41821	248.90288	24.54121	3.61415	-201.49837	48.04472	590.53424	325.33264	44.07224	536.86212	-53.85386	805.99512	-133.16483	-132.86929	543.82269	-91.33659	18.36193	549.18994	-116.02420	6.34024	585.34729	780.92548	157.04315	585.75513	760.23352	
885	8.840	-335.25336	28.89800	96.42235	248.96172	24.54238	3.52862	-201.44318	48.01424	590.51099	325.33942	44.05465	536.88550	-53.81880	806.00903	-133.32709	-132.82002	543.81525	-91.45518	18.33301	549.19763	-116.13353	6.42422	585.38965	780.64868	155.82643	585.18469	758.61859	
886	8.850	-335.22269	28.87134	96.39937	248.99109	24.55459	3.53051	-201.37869	48.01265	590.48810	325.42770	44.09334	536.82690	-53.85353	806.02612	-133.44493	-132.83434	543.76971	-91.55903	18.29411	549.20990	-116.31368	6.33115	585.30988	780.03595	155.85719	585.23816	758.50305	
887	8.860	-335.20938	28.91017	96.38210	249.03902	24.54883	3.56462	-201.25264	48.00304	590.44977	325.47232	44.10816	536.84497	-53.81513	806.04694	-133.53493	-132.73128	543.75641	-91.68706	18.23570	549.22540	-116.85143	6.34956	585.37695	779.95020	155.91794	585.26196	758.39917	
888	8.870	-335.14828	28.86756	96.40839	249.08165	24.57773	3.54272	-201.15771	47.95954	590.48871	325.55511	44.10857	536.79047	-53.81149	806.04504	-133.63914	-132.72920	543.74469	-91.74333	18.30215	549.21136	-116.96389	6.41159	585.40558	779.82898	156.05362	585.27911	758.33734	
889	8.880	-335.11035	28.87770	96.40976	249.12715	24.56662	3.51417	-200.96501	47.85918	590.49542	325.51212	44.08911	536.76453	-53.77637	805.99774	-133.75647	-132.68967	543.71814	-91.79147	18.26415	549.18024	-117.08818	6.43374	585.45361	779.72028	156.29626	585.46594	758.64746	
890	8.890	-335.06665	28.86357	96.40513	249.18687	24.56192	3.46816	-200.82268	47.79852	590.53033	325.59985	44.10667	536.76874	-53.75018	806.04694	-133.80956	-132.66383	543.72424	-91.84663	18.31660	549.23340	-116.83154	6.46424	585.48700	779.64752	156.45297	585.45544	758.59973	
891	8.900	-334.95776	28.83574	96.45771	249.24152	24.54454	3.42266	-200.57953	47.63095	590.67462	325.63336	44.10250	536.78979	-53.73899	806.04309	-133.90823	-132.58784	543.66748	-91.90006	18.37396	549.18616	-116.89574	6.58195	585.36475	779.42218	156.55931	585.48492	758.50403	
892	8.910	-334.89777	28.79662	96.44241	249.36804	24.55499	3.39124	-200.31540	47.54240	590.66302	325.75412	44.17400	536.79919	-53.77207	806.03497	-134.00113	-132.56459	543.68713	-91.93962	18.41991	549.18170	-116.95364	6.61977	585.42737	779.30487	156.66554	585.50342	758.40491	
893	8.920	-334.81873	28.83770	96.43501	249.39500	24.59113	3.37741	-200.01192	47.27586	590.86621	325.78885	44.12281	536.73132	-53.73858	806.02930	-134.04102	-132.48561	543.64276	-92.00105	18.46041	549.14099	-117.04066	6.79690	585.46075	779.28912	156.91087	585.58191	758.38397	
894	8.930	-334.76102	28.82064	96.42944	249.49823	24.57474	3.33735	-202.13461	48.90091	590.02704	325.98782	44.14217	536.71033	-53.71004	806.00293	-134.14476	-132.42148	543.65302	-92.06405	18.51682	549.12146	-117.11496	6.91788	585.55206	779.25592	157.08290	585.58325	758.32336	
895	8.940	-334.70410	28.84184	96.44263	249.56761	24.58883	3.31948	-201.76500	48.73407	590.12225	326.00385	44.13647	536.70245	-53.64795	805.97375	-134.22717	-132.32010	543.62128	-92.09357	18.54523	549.09326	-117.15112	7.02349	585.58844	779.16907	157.21896	585.67505	758.22546	
896	8.950	-334.65555	28.83719	96.43152	249.68417	24.56688	3.26360	-201.30840	48.51418	590.26709	326.09756	44.13557	536.70190	-53.54196	805.91852	-134.35078	-132.27953	543.62183	-92.18143	18.65416	549.08325	-117.25232	7.55461	585.69995	779.56946	157.43753	585.69818	758.15240	
